<svg xmlns="http://www.w3.org/2000/svg" viewBox="0 0 900 360" role="img" aria-labelledby="title desc">
  <title id="title">Logo BricoLoc</title>
  <desc id="desc">Logo BricoLoc bleu et orange</desc>
  <defs>
    <linearGradient id="blue" x1="0" y1="0" x2="1" y2="1">
      <stop offset="0%" stop-color="#2C83C6"/>
      <stop offset="100%" stop-color="#1F5F98"/>
    </linearGradient>
    <linearGradient id="orange" x1="0" y1="0" x2="1" y2="1">
      <stop offset="0%" stop-color="#F39A2E"/>
      <stop offset="100%" stop-color="#E77F1A"/>
    </linearGradient>
  </defs>

  <rect width="900" height="360" fill="#f8fbff"/>

  <g transform="translate(380 20)">
    <rect x="0" y="0" width="64" height="64" rx="10" fill="url(#blue)"/>
    <rect x="64" y="0" width="64" height="64" rx="10" fill="url(#orange)"/>
    <path d="M26 16c-9 0-16 7-16 16s7 16 16 16c3 0 6-1 8-2l-8-8 8-8c-2-1-5-2-8-2z" fill="#fff"/>
    <path d="M105 12c-7 0-12 5-12 12 0 2 0 4 1 5L74 49l5 5 20-20c2 1 3 1 5 1 7 0 12-5 12-12s-5-11-11-11z" fill="#fff"/>
  </g>

  <text x="130" y="240" font-size="140" font-family="Arial, Helvetica, sans-serif" font-weight="700">
    <tspan fill="url(#blue)">Brico</tspan>
    <tspan fill="url(#orange)">Loc</tspan>
  </text>
</svg>
